<?xml version="1.0" encoding="utf-8"?>
<!-- Generator: Adobe Illustrator 27.3.1, SVG Export Plug-In . SVG Version: 6.00 Build 0)  -->
<svg version="1.1" id="Camada_1" xmlns="http://www.w3.org/2000/svg" xmlns:xlink="http://www.w3.org/1999/xlink" x="0px" y="0px"
	 viewBox="0 0 500 500" style="enable-background:new 0 0 500 500;" xml:space="preserve">
<style type="text/css">
	.st0{fill:#EA6C16;}
	.st1{fill:#287A7A;}
	.st2{fill:#D94E4E;}
	.st3{fill:#4652A0;}
	.st4{fill:#F2F2F2;}
	.st5{fill:none;stroke:#000000;stroke-width:13;}
	.st6{fill:none;}
	.st7{fill:#131313;}
	.st8{fill:#F2F2F2;stroke:#F1F1F1;stroke-miterlimit:10;}
</style>
<path d="M-636.56-236.21"/>
<path d="M-601.79-23.18"/>
<path d="M-359.64-34.45"/>
<g>
	<g>
		<circle class="st0" cx="-601.48" cy="-324.62" r="74.96"/>
		<circle class="st1" cx="-472.59" cy="-371.62" r="46.99"/>
		<circle class="st2" cx="-381.75" cy="-366.7" r="34.08"/>
		<circle class="st3" cx="-317.4" cy="-341.65" r="21.52"/>
	</g>
	<path class="st4" d="M-216.45-229.67c-14.03-59.73-46.03-69.14-78.62-59.73c-39.29,11.34-49.17,124.6-87.82,115.78
		c-52.36-11.9-49.32-88.94-95.21-88.94c-45.16,0-52.72,75.93-96.65,80.82c-40.71,9.15-61.74-45.51-92.46-45.51
		c-30.72,0-40.14,103.18-40.14,157.67c0,6.93,0,13.6,0.12,19.89c-0.08,1.5-0.12,3.01-0.12,4.54c0,7.26,0.67,14.34,2,21.1
		c0.8,4.86,1.91,9.13,3.47,12.68c9.74,27.2,32.92,46.39,72.87,44.81c47.91-1.89,95.59-7.06,136.02-8.39
		c2.24,0.05,4.89-0.02,7.98-0.21c2.49-0.05,4.95-0.09,7.38-0.1c0.66,0,1.29-0.02,1.91-0.05c42.81,0.45,175.68,11.42,187.19,10.93
		c12.81-0.55,33.22-1.23,49.85-16.1C-193.72-16.38-207.81-192.87-216.45-229.67z M-546.34-18.47h-35.64l16.29-132.37h90.83
		l-3.87,30.55h-55.19l-2.55,21.48h46.43l-3.46,27.7h-46.43L-546.34-18.47z M-477.1-16.63c-11.2,0-18.43-7.84-18.43-18.53
		c0-12.22,9.37-20.97,21.08-20.97c11.2,0,18.43,7.84,18.43,18.53C-456.02-25.39-465.39-16.63-477.1-16.63z M-329.15-105.83
		l-32.58,3.46c-0.1-14.56-7.33-20.87-21.08-20.87c-8.15,0-14.97,2.24-14.97,9.37c0,8.25,8.96,10.9,21.59,14.36
		c28.1,7.74,43.58,15.68,43.58,38.39c0,27.29-22.3,44.5-56.92,44.5c-30.04,0-53.97-12.93-52.44-46.33l34.42-3.46
		c0,14.56,7.13,20.16,21.28,20.16c11.3,0,16.8-3.67,16.8-9.88c0-5.91-4.58-8.66-22.2-12.73c-29.02-6.62-42.46-17.31-42.46-39.71
		c0-27.19,20.16-44.09,54.88-44.09C-346.05-152.67-328.54-137.29-329.15-105.83z"/>
</g>
<g>
	<g>
		<path class="st5" d="M24.8-493.63"/>
	</g>
	<g>
		<path class="st5" d="M37.43-492.1"/>
	</g>
	<g>
		<path class="st0" d="M24.8-493.63"/>
	</g>
	<g>
		<path class="st0" d="M37.43-492.1"/>
	</g>
	<g>
		<path class="st0" d="M42.83-498.48c-0.1-27.34-20.49-51-48.34-54.44c-30.21-3.74-57.73,17.72-61.47,47.94
			c-3.65,29.49,16.71,56.4,45.78,61.15l1.56-12.63c-22.09-3.88-37.5-24.45-34.72-46.96c2.88-23.24,24.04-39.74,47.28-36.87
			c20.86,2.58,36.29,19.91,37.15,40.23L42.83-498.48z"/>
	</g>
	<path class="st1" d="M71.6-543.29c-12.68-1.57-24.87,1.31-35.04,7.4c2.59,3.36,4.82,7,6.67,10.83c7.79-4.62,17.12-6.8,26.81-5.61
		c20.83,2.58,36.23,19.85,37.14,40.14l12.76,1.58C119.8-516.24,99.42-539.84,71.6-543.29z"/>
	<path class="st1" d="M22.76-493.79c0.2-1.61,0.49-3.18,0.86-4.72c-0.03-6.95-2.06-13.54-5.63-19.13
		c-4.08,6.57-6.85,14.1-7.86,22.28c-3.65,29.49,16.71,56.4,45.78,61.15l1.56-12.63C35.38-450.7,19.98-471.28,22.76-493.79z"/>
	<path class="st2" d="M198.64-479.21c-0.1-27.34-20.49-51-48.34-54.44c-12.68-1.57-24.87,1.31-35.04,7.4
		c2.59,3.36,4.82,7,6.67,10.83c7.79-4.62,17.12-6.8,26.81-5.61c20.86,2.58,36.29,19.91,37.15,40.23l12.02,1.49L198.64-479.21z"/>
	<path class="st2" d="M101.45-484.15c0.2-1.61,0.49-3.18,0.86-4.72c-0.03-6.95-2.06-13.54-5.63-19.13
		c-4.08,6.57-6.85,14.1-7.86,22.28c-3.65,29.49,16.71,56.4,45.78,61.15l1.56-12.63C114.07-441.07,98.67-461.64,101.45-484.15z"/>
	<path class="st3" d="M273.83-469.9l3.48,0.43c-0.1-27.34-20.49-51-48.34-54.44c-12.68-1.57-24.87,1.31-35.04,7.4
		c2.59,3.36,4.82,7,6.67,10.83c7.79-4.62,17.12-6.8,26.81-5.61c20.86,2.58,36.29,19.91,37.15,40.23l8.54,1.06L273.83-469.9z"/>
	<path class="st3" d="M180.13-474.41c0.2-1.61,0.49-3.18,0.86-4.72c-0.03-6.95-2.06-13.54-5.63-19.13
		c-4.08,6.57-6.85,14.1-7.86,22.28c-3.65,29.49,16.71,56.4,45.78,61.15l1.56-12.63C192.75-431.33,177.35-451.9,180.13-474.41z"/>
	<g>
		
			<rect x="59.47" y="-341.66" transform="matrix(0.1228 -0.9924 0.9924 0.1228 245.7005 -105.8464)" class="st4" width="7" height="299.5"/>
		
			<rect x="65.46" y="-389.99" transform="matrix(0.1228 -0.9924 0.9924 0.1228 298.9158 -142.2951)" class="st4" width="7" height="299.5"/>
		
			<rect x="77.42" y="-486.65" transform="matrix(0.1228 -0.9924 0.9924 0.1228 405.3305 -215.2132)" class="st4" width="7" height="299.5"/>
		<path class="st4" d="M186.59-473.64v0.01c-2.35,18.99,10.56,36.46,29.39,39.76l6.09,1.07l-3.15,25.47l-6.67-1.09
			c-32.78-5.36-55.27-35.39-51.18-68.36v-0.01l-53.13-6.57c-0.03,0.21-0.07,0.43-0.1,0.64c-2.32,18.75,10.61,36.02,29.44,39.31
			l6.09,1.06l-3.11,25.15l-6.67-1.09c-32.78-5.34-55.31-35.03-51.28-67.59c0.03-0.21,0.07-0.42,0.1-0.64l-53.16-6.58
			c-0.01,0.04-0.01,0.08-0.02,0.12c-2.35,18.99,10.56,36.46,29.39,39.76l6.09,1.07l-3.15,25.47l-6.67-1.09
			c-32.78-5.36-55.27-35.39-51.18-68.36c0.01-0.04,0.01-0.08,0.02-0.12l-51.6-6.38c0,0.01,0,0.02,0,0.03
			c-2.35,18.99,10.56,36.46,29.39,39.76l6.09,1.07l-3.15,25.47l-6.67-1.09c-32.54-5.32-54.92-34.94-51.26-67.63l0.09-0.73h-0.02
			c0-0.01,0-0.02,0-0.03l-3.18-0.39v0.03l-10-1.24l-46.37,374.48l10,1.24l3.2,0.4l358.4,44.35l46.34-374.55L186.59-473.64z
			 M-90.53-276.61l323.05,39.97l-4.05,32.75l-323.05-39.97L-90.53-276.61z M222.49-155.56l-323.05-39.97l4.05-32.75l323.05,39.97
			L222.49-155.56z M234.45-252.21L-88.6-292.19l4.05-32.75l323.05,39.97L234.45-252.21z M240.43-300.54l-323.05-39.97l4.05-32.75
			l323.05,39.97L240.43-300.54z"/>
		
			<rect x="71.44" y="-438.32" transform="matrix(0.1228 -0.9924 0.9924 0.1228 352.1233 -178.754)" class="st4" width="7" height="299.5"/>
	</g>
	<g>
		
			<rect x="70.92" y="-493.15" transform="matrix(0.1228 -0.9924 0.9924 0.1228 405.3306 -215.2137)" class="st0" width="20" height="312.5"/>
	</g>
	<path class="st6" d="M96.47-484.79c0.19-1.36,0.44-2.71,0.76-4.02c-0.04-6.86-2.08-13.38-5.66-18.9
		c-3.96,6.31-6.67,13.53-7.73,21.36L96.47-484.79z"/>
	
		<rect x="64.95" y="-444.83" transform="matrix(0.1228 -0.9924 0.9924 0.1228 352.1398 -178.7638)" class="st1" width="20" height="312.5"/>
	
		<rect x="58.97" y="-396.51" transform="matrix(0.1228 -0.9924 0.9924 0.1228 298.9424 -142.3128)" class="st2" width="20" height="312.5"/>
	
		<rect x="52.99" y="-348.18" transform="matrix(0.1228 -0.9924 0.9924 0.1228 245.7339 -105.8542)" class="st3" width="20" height="312.5"/>
</g>
<path class="st7" d="M-202.4,194"/>
<g>
	<path class="st7" d="M473.86,325.2c5.08-42.22-3.95-71.49-17.25-96.63l1.98,14.63l-183.27,24.84l-4.6-33.9l175.28-23.76
		c-3.2-5.1-6.48-10.12-9.75-15.13l-149.36,20.25l-4.06-29.96l136.16-18.46c-1.08-1.99-2.14-4.01-3.16-6.06l-133.86,18.15l-0.75-5.53
		c-1.82,0.27-3.65,0.55-5.47,0.82l5.73,42.3l-170,23.05l-5.44-40.14c-29.71,4.3-59.43,8.58-89.14,12.93
		c14.42,14.84,31.52,35.57,46.42,62.9c25.87,47.45,32.71,92.04,34.62,119.37l378.4-53.56C478.09,332.64,472.74,334.5,473.86,325.2z
		 M129.57,373.14l-17.35-127.96l127.96-17.35l17.35,127.96L129.57,373.14z M276.32,275.33l183.27-24.84l4.6,33.9l-183.27,24.84
		L276.32,275.33z M286.57,350.93l-4.6-33.9l183.27-24.84l4.6,33.9L286.57,350.93z"/>
	<g>
		
			<rect x="112.69" y="167.67" transform="matrix(0.9909 -0.1343 0.1343 0.9909 -24.4388 27.5544)" class="st0" width="158.56" height="54.41"/>
	</g>
	<g>
		
			<rect x="285.7" y="144.4" transform="matrix(0.9909 -0.1343 0.1343 0.9909 -17.27 50.0699)" class="st1" width="153.41" height="17.23"/>
	</g>
	<g>
		
			<rect x="126.82" y="242.42" transform="matrix(0.9909 -0.1343 0.1343 0.9909 -38.6892 27.5591)" class="st2" width="116.13" height="116.13"/>
	</g>
	<g>
		
			<rect x="278.7" y="228.06" transform="matrix(0.9909 -0.1343 0.1343 0.9909 -28.7555 51.1499)" class="st3" width="171.94" height="21.21"/>
	</g>
	<g>
		
			<rect x="284.28" y="269.25" transform="matrix(0.9909 -0.1343 0.1343 0.9909 -34.2384 52.2733)" class="st3" width="171.94" height="21.21"/>
	</g>
	<g>
		
			<rect x="289.93" y="310.95" transform="matrix(0.9909 -0.1343 0.1343 0.9909 -39.7877 53.4104)" class="st3" width="171.94" height="21.21"/>
	</g>
	
		<rect x="297.13" y="187.22" transform="matrix(0.9909 -0.1344 0.1344 0.9909 -22.1144 51.088)" class="st4" width="140.41" height="4.23"/>
	<path class="st8" d="M443.64,103.95c-126.37,17.13-252.74,34.26-379.11,51.4c21.28,54.25,39.88,125.98,35.51,208.37
		c-0.59,11.15-1.57,21.93-2.87,32.33l379.11-51.4c1.75-8.66,3.21-17.64,4.33-26.94C490.88,232.21,467.41,156.59,443.64,103.95z
		 M451.81,193.14l-164.9,22.35l-4.06-29.96l164.9-22.35L451.81,193.14z M442.83,126.86l4.06,29.96l-164.9,22.35l-4.06-29.96
		L442.83,126.86z M102.44,173l170-23.05l9.06,66.8l-170,23.05L102.44,173z M129.57,373.14l-17.35-127.96l127.96-17.35l17.35,127.96
		L129.57,373.14z M270.74,234.14L454,209.29l4.6,33.9l-183.27,24.84L270.74,234.14z M276.32,275.33l183.26-24.84l4.6,33.9
		l-183.27,24.84L276.32,275.33z M286.57,350.92l-4.6-33.9l183.27-24.84l4.6,33.9L286.57,350.92z"/>
	<g>
		
			<rect x="290.63" y="180.72" transform="matrix(0.9909 -0.1343 0.1343 0.9909 -22.1046 51.0606)" class="st1" width="153.41" height="17.23"/>
	</g>
</g>
</svg>
