<svg width="1352" height="949" viewBox="0 0 1352 949" fill="none" xmlns="http://www.w3.org/2000/svg">
<mask id="mask0_301_2" style="mask-type:luminance" maskUnits="userSpaceOnUse" x="0" y="0" width="1352" height="949">
<path d="M1352 0H0V948.921H1352V0Z" fill="white"/>
</mask>
<g mask="url(#mask0_301_2)">
<path d="M1350.2 612.88C1348.61 569.564 1347.45 526.354 1345.33 483.039C1343.53 447.242 1341.3 411.446 1337.91 375.756C1334.1 335.723 1325.95 296.75 1310.7 259.471C1295.13 221.556 1271.19 192.326 1236.35 173.157C1214.43 161.084 1191.13 158.542 1167.3 163.837C1147.18 168.285 1129.91 179.405 1114.66 193.915C1096.34 211.495 1082.04 232.57 1070.18 255.234C1051.33 291.56 1033.43 328.31 1015.22 364.953C1002.3 390.9 989.271 416.741 972.961 440.464C963.642 454.02 953.263 466.623 940.13 476.367C924.245 488.122 907.088 491.194 888.448 485.369C867.585 478.908 849.792 466.623 832.742 452.75C806.583 431.251 783.813 406.045 759.878 382.004C735.096 357.116 710.843 331.381 683.414 309.564C670.07 298.974 655.56 290.607 639.251 286.9C617.964 282.135 598.265 287.748 579.943 299.715C560.562 312.318 544.888 329.263 529.214 346.314C516.294 360.399 504.008 375.12 490.982 388.888C463.658 417.801 433.263 442.371 397.361 458.574C379.357 466.729 360.505 471.601 340.807 472.66C312.742 474.143 287.218 465.352 263.178 450.843C238.925 436.228 216.791 418.33 194.55 400.538C181.1 389.735 166.909 379.992 151.764 371.943C142.55 366.966 132.913 363.153 122.534 362.306C107.495 361.035 95.1043 367.495 84.3018 377.874C70.534 391.218 61.2143 407.951 53.0595 425.426C34.6318 464.929 24.253 507.08 15.6745 549.866C9.00245 583.438 4.13076 617.328 1.16539 651.43C0.635855 657.043 0.318136 662.762 0.106323 668.375V755.006C1.58901 775.87 4.8721 796.521 10.9088 816.644C18.534 842.273 29.1246 866.42 46.5992 886.648C65.8741 908.994 90.0207 922.444 116.921 931.552C146.998 941.613 177.923 945.214 209.271 946.908C252.481 949.238 295.691 947.544 338.689 945.002C381.369 942.46 423.943 938.542 466.624 935.471C493.206 933.564 519.894 932.293 546.477 930.705C602.501 927.422 658.526 926.68 714.55 927.422C757.548 927.951 800.652 929.01 843.65 930.705C886.648 932.399 929.646 934.941 972.644 937.8C1006.64 940.025 1040.64 943.837 1074.63 945.743C1103.12 947.438 1131.72 947.332 1160.2 948.285C1181.07 948.921 1201.83 948.497 1222.58 945.32C1240.16 942.566 1257.21 937.695 1273.31 929.54C1303.28 914.289 1322.45 889.19 1333.36 856.464C1343.21 827.128 1347.34 796.733 1349.67 765.915C1353.48 715.08 1352 664.033 1350.2 612.88Z" fill="#F1F1F1"/>
<path d="M607.585 222.721C666.045 222.721 713.491 172.839 713.491 111.308C713.491 49.776 666.151 0 607.585 0C549.124 0 501.678 49.8819 501.678 111.413C501.678 172.945 549.124 222.721 607.585 222.721Z" fill="#267A7A"/>
<path d="M845.45 191.902C889.508 191.902 925.304 154.306 925.304 107.919C925.304 61.5318 889.613 23.9351 845.45 23.9351C801.393 23.9351 765.597 61.5318 765.597 107.919C765.597 154.306 801.393 191.902 845.45 191.902Z" fill="#D94E4E"/>
<path d="M1036.08 212.449C1066.69 212.449 1091.47 186.396 1091.47 154.201C1091.47 122.005 1066.69 95.9521 1036.08 95.9521C1005.48 95.9521 980.693 122.005 980.693 154.201C980.693 186.396 1005.48 212.449 1036.08 212.449Z" fill="#4B4BEB"/>
</g>
<path d="M176.228 834.117C168.921 834.117 162.354 832.422 156.635 829.139C150.811 825.856 146.257 821.196 142.974 815.371C139.69 809.441 137.996 802.663 137.996 795.037C137.996 787.306 139.69 780.422 142.974 774.597C146.257 768.773 150.811 764.219 156.635 760.935C162.46 757.652 168.921 756.064 176.228 756.064C182.9 756.064 188.937 757.546 194.232 760.618C199.528 763.689 203.764 768.031 206.941 773.856C210.118 779.681 211.707 786.671 211.707 795.037C211.707 803.298 210.118 810.394 207.047 816.219C203.976 822.043 199.739 826.491 194.444 829.563C189.043 832.634 183.006 834.117 176.228 834.117ZM176.969 824.903C182.371 824.903 187.348 823.632 191.585 821.196C195.927 818.76 199.316 815.16 201.752 810.711C204.187 806.157 205.458 800.968 205.458 795.037C205.458 789.001 204.187 783.705 201.752 779.257C199.316 774.809 195.821 771.314 191.585 768.878C187.242 766.443 182.371 765.172 176.969 765.172C171.674 765.172 166.802 766.443 162.566 768.878C158.33 771.314 154.835 774.809 152.399 779.257C149.857 783.705 148.587 789.001 148.587 795.037C148.587 800.968 149.857 806.157 152.399 810.711C154.941 815.265 158.33 818.76 162.566 821.196C166.802 823.738 171.568 824.903 176.969 824.903ZM205.776 833.375V810.288L206.835 794.825L205.352 779.363V725.139H215.731V833.375H205.776Z" fill="#22272E"/>
<path d="M290.925 834.114C282.982 834.114 275.993 832.419 269.956 829.03C263.919 825.641 259.259 821.087 255.764 815.157C252.375 809.226 250.681 802.554 250.681 794.929C250.681 787.303 252.27 780.631 255.553 774.806C258.836 768.982 263.284 764.428 269.003 761.039C274.722 757.65 281.076 756.061 288.172 756.061C295.373 756.061 301.728 757.65 307.341 760.933C312.954 764.216 317.296 768.77 320.579 774.595C323.756 780.525 325.345 787.303 325.345 794.929C325.345 795.458 325.345 795.882 325.239 796.517C325.133 797.047 325.133 797.576 325.133 798.212H258.518V790.481H319.626L315.496 793.552C315.496 788.045 314.331 783.067 311.895 778.725C309.565 774.383 306.282 770.994 302.151 768.558C298.021 766.122 293.361 764.957 287.96 764.957C282.665 764.957 278.005 766.122 273.769 768.558C269.638 770.994 266.355 774.383 264.025 778.725C261.695 783.067 260.53 788.151 260.53 793.764V795.352C260.53 801.177 261.801 806.261 264.343 810.709C266.885 815.157 270.485 818.546 275.145 821.087C279.805 823.523 284.995 824.794 290.925 824.794C295.585 824.794 299.927 823.947 303.952 822.358C307.976 820.664 311.471 818.228 314.331 814.733L320.156 821.405C316.767 825.536 312.53 828.607 307.341 830.725C302.681 833.055 297.068 834.114 290.925 834.114Z" fill="#22272E"/>
<path d="M448.619 710.31C457.939 710.31 468 711.899 478.802 715.182L474.142 728.42C463.869 725.455 454.973 723.972 447.454 723.972C438.981 723.972 431.886 725.772 426.061 729.267C420.236 732.868 417.271 737.422 417.271 743.035C417.271 746.212 418.224 748.966 420.13 751.402C422.036 753.838 424.472 755.85 427.544 757.438C430.615 759.027 434.11 760.51 438.028 761.992C441.947 763.475 445.971 764.852 449.996 766.123C454.02 767.394 458.045 768.982 461.963 770.888C465.882 772.795 469.377 774.913 472.448 777.243C475.519 779.573 477.955 782.538 479.861 786.245C481.768 789.952 482.721 794.188 482.721 798.848C482.721 802.131 482.191 805.308 481.132 808.591C480.073 811.768 478.379 815.051 476.049 818.123C473.613 821.3 470.647 824.053 467.153 826.489C463.658 828.925 459.21 830.831 453.808 832.314C448.407 833.797 442.37 834.538 435.804 834.538C429.238 834.538 423.096 833.903 417.588 832.526C412.081 831.149 405.833 829.137 398.949 826.383L403.926 812.298C418.224 817.593 429.45 820.241 437.711 820.241C446.395 820.241 453.385 818.546 458.892 815.051C464.293 811.556 467.047 806.897 467.047 801.072C467.047 797.153 465.882 793.87 463.446 791.011C461.01 788.151 457.939 785.927 454.02 784.127C450.207 782.432 445.865 780.738 441.205 779.255C436.546 777.772 431.886 776.078 427.226 774.383C422.566 772.689 418.33 770.677 414.517 768.347C410.704 766.017 407.527 762.945 405.091 759.133C402.656 755.214 401.491 750.66 401.491 745.471C401.491 740.811 402.656 736.363 404.88 732.021C407.104 727.785 410.281 723.972 414.199 720.795C418.224 717.618 423.201 714.97 429.132 713.064C435.169 711.263 441.629 710.31 448.619 710.31Z" fill="#22272E"/>
<path d="M688.073 722.383C684.684 722.383 681.825 722.807 679.389 723.76C676.953 724.713 675.153 725.772 673.882 727.043C672.611 728.314 671.658 729.797 671.022 731.491C670.281 733.186 669.857 734.669 669.752 735.728C669.646 736.787 669.54 737.952 669.54 739.223V748.33H697.817V759.345H669.434V832.738H655.242V759.345H643.063V748.33H655.242V739.752C655.242 732.339 656.301 726.726 658.525 722.807C660.75 718.889 664.033 715.817 668.375 713.699C672.717 711.581 677.695 710.522 683.413 710.522C689.556 710.522 696.228 711.581 703.642 713.805L701.523 724.184C696.334 723.125 691.78 722.383 688.073 722.383Z" fill="#22272E"/>
<path d="M778.518 831.362C770.257 833.48 763.797 834.539 759.243 834.539C754.583 834.539 750.771 833.798 747.488 832.315C744.31 830.832 741.874 828.714 740.18 825.961C738.485 823.207 737.321 820.242 736.579 817.064C735.838 813.887 735.52 810.286 735.52 806.156V759.345H724.188V748.331H735.52V724.185H749.5V748.331H775.341V759.345H749.606V806.05C749.606 817.7 754.266 823.525 763.479 823.525C765.174 823.525 769.516 822.889 776.612 821.724L778.518 831.362Z" fill="#22272E"/>
<path d="M806.265 748.438H821.198L844.074 819.289L865.785 748.438H879.552L902.11 819.183L924.986 748.438H939.919L909.1 832.845H895.015L872.563 764.43L850.322 832.845H836.237L806.265 748.438Z" fill="#22272E"/>
<path d="M1005.05 746.848C1011.3 746.848 1016.6 747.589 1021.04 749.072C1025.39 750.554 1028.77 752.672 1031.1 755.426C1033.43 758.18 1035.13 761.357 1036.19 764.746C1037.25 768.135 1037.78 772.053 1037.78 776.501V832.949H1027.82L1024.54 825.218C1017.65 831.467 1009.71 834.644 1000.81 834.644C992.872 834.644 986.094 832.208 980.587 827.442C975.08 822.677 972.326 816.958 972.326 810.603C972.326 807.214 972.962 804.143 974.233 801.389C975.503 798.636 977.304 796.412 979.634 794.505C981.964 792.705 984.717 791.116 987.683 789.846C990.648 788.575 994.249 787.622 998.273 786.88C1002.3 786.245 1006.32 785.715 1010.35 785.398C1014.37 785.08 1018.82 784.974 1023.69 784.974V778.302C1023.69 776.396 1023.58 774.701 1023.48 773.218C1023.37 771.842 1022.84 770.041 1022.1 768.135C1021.25 766.123 1020.2 764.534 1018.82 763.263C1017.44 761.992 1015.43 760.827 1012.68 759.98C1009.92 759.027 1006.64 758.603 1002.93 758.603C997.108 758.603 989.589 759.874 980.375 762.416L977.727 752.143C986.941 748.542 996.049 746.848 1005.05 746.848ZM1023.58 795.459H1018.4C1015.11 795.459 1012.36 795.565 1009.92 795.67C1007.49 795.776 1004.73 796.094 1001.45 796.624C998.273 797.153 995.626 797.894 993.507 798.848C991.495 799.801 989.695 801.178 988.212 803.084C986.729 804.884 985.988 807.108 985.988 809.756C985.988 813.357 987.788 816.534 991.389 819.288C994.99 822.041 999.332 823.524 1004.31 823.524C1011.62 823.524 1017.97 820.664 1023.37 814.84V795.459H1023.58Z" fill="#22272E"/>
<path d="M1097.61 754.686C1104.71 749.391 1112.55 746.743 1121.23 746.743C1127.16 746.743 1132.56 747.802 1137.33 750.026L1133.09 761.252C1128.64 759.558 1123.98 758.711 1119.22 758.711C1112.12 758.711 1105.45 760.723 1099.1 764.641V832.845H1085.12V748.438H1094.97L1097.61 754.686Z" fill="#22272E"/>
<path d="M1206.48 746.848C1210.62 746.848 1214.32 747.377 1217.61 748.33C1220.89 749.283 1223.64 750.554 1225.76 752.143C1227.98 753.732 1229.78 755.744 1231.37 758.18C1232.96 760.615 1234.13 763.051 1234.97 765.381C1235.82 767.711 1236.46 770.465 1236.88 773.748C1237.3 777.031 1237.62 779.784 1237.73 782.22C1237.83 784.656 1237.94 787.41 1237.94 790.693V797.365H1179.9C1179.9 800.436 1180.64 803.507 1182.02 806.579C1183.4 809.65 1185.41 812.404 1187.95 814.945C1190.49 817.487 1193.78 819.499 1197.91 821.194C1202.04 822.782 1206.59 823.63 1211.67 823.63C1217.61 823.63 1223.96 822.571 1230.95 820.558L1233.39 830.09C1224.17 833.267 1215.28 834.75 1206.38 834.75C1200.13 834.75 1194.62 833.903 1189.86 832.314C1185.09 830.62 1181.17 828.501 1178.21 825.854C1175.24 823.206 1172.81 820.029 1171.01 816.322C1169.1 812.615 1167.83 808.909 1167.09 805.202C1166.35 801.495 1166.03 797.683 1166.03 793.552C1166.03 787.198 1166.77 781.479 1168.36 776.184C1169.95 770.888 1171.96 766.546 1174.61 762.945C1177.25 759.345 1180.33 756.379 1183.82 753.943C1187.32 751.508 1191.02 749.707 1194.84 748.648C1198.44 747.377 1202.46 746.848 1206.48 746.848ZM1203.52 758.921C1198.54 758.921 1194.2 760.298 1190.6 763.051C1187 765.805 1184.35 769.3 1182.66 773.324C1180.96 777.455 1180.22 781.797 1180.22 786.563H1224.28C1224.28 768.135 1217.39 758.921 1203.52 758.921Z" fill="#22272E"/>
<path d="M180.041 725.985H133.866V562.678H261.695V598.58H180.041V725.985ZM176.546 634.27H251.951V669.961H176.546V634.27Z" fill="#22272E"/>
<path d="M817.173 725.985V562.678H863.348V725.985H817.173Z" fill="#22272E"/>
<path d="M977.727 729.267C964.807 729.267 952.945 727.149 942.037 723.125C931.129 718.994 921.597 713.169 913.548 705.65C905.499 698.131 899.145 689.129 894.697 678.644C890.143 668.265 887.919 656.827 887.919 644.33C887.919 631.939 890.143 620.501 894.697 610.017C899.251 599.638 905.499 590.636 913.548 583.011C921.597 575.491 931.129 569.666 942.037 565.536C952.945 561.406 964.807 559.394 977.727 559.394C992.766 559.394 1006.32 562.041 1018.18 567.231C1030.05 572.42 1040 580.045 1047.94 590.212L1018.5 616.795C1013.21 610.546 1007.38 605.78 1001.03 602.603C994.672 599.32 987.683 597.732 980.057 597.732C973.385 597.732 967.243 598.791 961.63 601.015C956.017 603.239 951.251 606.31 947.332 610.44C943.414 614.571 940.237 619.548 938.013 625.267C935.789 630.986 934.624 637.446 934.624 644.436C934.624 651.426 935.789 657.78 938.013 663.605C940.237 669.324 943.414 674.302 947.332 678.432C951.251 682.563 956.123 685.74 961.63 687.858C967.243 690.082 973.385 691.141 980.057 691.141C987.683 691.141 994.672 689.552 1001.03 686.269C1007.38 682.986 1013.21 678.22 1018.5 671.76L1047.94 698.343C1040 708.51 1030.05 716.135 1018.18 721.43C1006.32 726.62 992.766 729.267 977.727 729.267Z" fill="#22272E"/>
<path d="M1046.25 725.985L1118.37 562.678H1163.91L1236.25 725.985H1188.16L1131.72 585.236H1149.93L1093.48 725.985H1046.25ZM1085.75 694.108L1097.61 660.217H1177.47L1189.33 694.108H1085.75Z" fill="#22272E"/>
<path d="M652.383 719.631C655.349 714.441 659.691 710.417 665.304 707.663C672.294 704.274 680.766 703.215 690.298 704.169V682.564H715.292L738.909 717.195H756.913V725.985H794.404L759.243 674.621C769.198 669.961 777.035 663.395 782.542 655.028C788.367 646.132 791.332 635.435 791.332 622.833C791.332 610.547 788.367 599.851 782.542 590.743C776.717 581.635 768.351 574.645 757.442 569.879C746.534 565.114 733.613 562.678 718.681 562.678H644.229V725.985H649.947C650.583 723.655 651.324 721.537 652.383 719.631ZM737.532 605.464C742.298 609.7 744.734 615.525 744.734 622.833C744.734 630.458 742.298 636.389 737.532 640.625C732.766 644.861 725.459 646.873 715.821 646.873H690.404V599.004H715.821C725.459 599.109 732.766 601.228 737.532 605.464Z" fill="#22272E"/>
<path d="M390.054 694.108L401.915 723.655C404.139 720.69 406.681 717.936 409.646 715.501C414.306 711.688 420.131 708.723 426.909 706.498C431.357 705.122 436.017 704.169 440.995 703.745L378.51 562.678H332.97L260.848 725.985H307.976L320.791 694.002H390.054V694.108ZM334.559 660.217L355.528 608.006L376.498 660.217H334.559Z" fill="#22272E"/>
<path d="M409.011 514.172H364.424L333.394 549.439H364.636L409.011 514.172Z" fill="#22272E"/>
<path d="M612.563 657.145C607.797 650.473 601.125 645.389 592.546 641.894C591.593 641.576 590.64 641.259 589.687 640.941C596.253 637.552 601.548 633.104 605.255 627.597C609.597 621.242 611.821 613.829 611.821 605.462C611.821 592.86 606.526 582.587 595.935 574.644C585.345 566.701 569.247 562.782 547.642 562.782H464.611V704.591C470.33 705.438 476.155 706.709 482.192 708.509L489.499 710.733L483.992 726.196H552.408C574.542 726.196 591.275 722.277 602.713 714.334C614.151 706.391 619.87 695.377 619.87 681.397C619.764 671.866 617.328 663.923 612.563 657.145ZM541.817 596.037C549.548 596.037 555.373 597.308 559.292 599.849C563.21 602.391 565.117 606.416 565.117 611.817C565.117 616.9 563.21 620.819 559.292 623.467C555.373 626.114 549.548 627.491 541.817 627.491H510.045V596.037H541.817ZM567.023 688.599C562.998 691.352 556.856 692.729 548.807 692.729H510.045V659.581H548.807C556.856 659.581 562.998 660.957 567.023 663.711C571.047 666.464 573.06 670.595 573.06 676.208C573.06 681.715 571.047 685.845 567.023 688.599Z" fill="#22272E"/>
<path d="M564.587 800.119C559.821 800.119 555.373 798.213 551.984 794.93C548.701 791.647 546.795 787.093 546.795 782.327C546.795 777.561 548.701 773.113 551.984 769.724C555.267 766.441 559.821 764.535 564.587 764.535C569.353 764.535 573.801 766.441 577.19 769.724C580.473 773.007 582.379 777.561 582.379 782.327C582.379 787.093 580.473 791.541 577.19 794.93C573.801 798.319 569.247 800.119 564.587 800.119ZM602.078 788.893C602.29 787.305 602.395 785.61 602.395 784.022C602.395 782.433 602.29 780.739 602.078 778.938L612.774 770.677C613.727 769.936 613.939 768.559 613.41 767.394L603.243 749.92C602.607 748.861 601.23 748.331 600.171 748.861L587.569 753.944C584.921 751.932 582.167 750.238 578.99 748.967L577.084 735.517C576.978 734.881 576.66 734.352 576.237 734.034C575.813 733.61 575.178 733.398 574.542 733.398H554.314C553.043 733.398 551.984 734.352 551.772 735.517L549.866 748.967C546.689 750.238 543.935 751.932 541.287 753.944L528.685 748.861C527.626 748.437 526.249 748.861 525.613 749.92L515.446 767.394C514.811 768.453 515.129 769.83 516.082 770.677L526.778 778.938C526.566 780.633 526.461 782.327 526.461 784.022C526.461 785.716 526.566 787.305 526.778 788.893L516.082 797.26C515.129 798.001 514.811 799.378 515.446 800.543L525.613 818.018C526.249 819.077 527.626 819.5 528.685 819.077L541.287 813.993C543.935 816.005 546.689 817.7 549.866 818.971L551.878 832.421C552.09 833.586 553.149 834.539 554.42 834.539H574.648C575.919 834.539 576.978 833.586 577.19 832.421L579.096 818.971C582.273 817.7 585.027 816.005 587.674 813.993L600.277 819.077C601.336 819.5 602.713 819.077 603.349 818.018L613.516 800.543C614.151 799.484 613.833 798.107 612.88 797.26L602.078 788.893Z" fill="#22272E"/>
<path d="M311.365 394.184C407.113 394.184 484.733 316.564 484.733 220.815C484.733 125.066 407.113 47.4463 311.365 47.4463C215.616 47.4463 137.996 125.066 137.996 220.815C137.996 316.564 215.616 394.184 311.365 394.184Z" fill="#EA6D18"/>
</svg>
